# xmcd CD database file
#
# Track frame offsets:
#	150
#	27107
#	185399
#	216614
#
# Disc length: 4065 seconds
#
# Revision: 0
# Processed by: cddbd v1.5.2PL0 Copyright (c) Steve Scherf et al.
# Submitted via: CDex 1.51
#
DISCID=340fdf04
DTITLE=Claudio Cojaniz - Giancarlo Schiaffini - War Orphans
DYEAR=2004
DGENRE=Jazz
TTITLE0=Or... (Claudio Cojaniz)
TTITLE1=Lonely Woman (Ornette Coleman)
TTITLE2=Nette (Giancarlo Schiaffini)
TTITLE3=War Orphans (Ornette Coleman)
EXTD=YEAR: 2004
EXTT0=
EXTT1=
EXTT2=
EXTT3=
PLAYORDER=
